<mxfile host="app.diagrams.net" modified="2020-07-29T14:02:25.070Z" agent="5.0 (Windows NT 10.0; Win64; x64) AppleWebKit/537.36 (KHTML, like Gecko) Chrome/83.0.4103.116 Safari/537.36" etag="jW34WywC2Y951zaa8mWn" version="13.5.5" type="github">
  <diagram id="C5RBs43oDa-KdzZeNtuy" name="Page-1">
    <mxGraphModel dx="1422" dy="794" grid="1" gridSize="10" guides="1" tooltips="1" connect="1" arrows="1" fold="1" page="1" pageScale="1" pageWidth="827" pageHeight="1169" math="0" shadow="0">
      <root>
        <mxCell id="WIyWlLk6GJQsqaUBKTNV-0" />
        <mxCell id="WIyWlLk6GJQsqaUBKTNV-1" parent="WIyWlLk6GJQsqaUBKTNV-0" />
        <mxCell id="8H6woboxu_KClOvkfunE-1" value="" style="outlineConnect=0;dashed=0;verticalLabelPosition=bottom;verticalAlign=top;align=center;html=1;shape=mxgraph.aws3.redshift;fillColor=#2E73B8;gradientColor=none;" vertex="1" parent="WIyWlLk6GJQsqaUBKTNV-1">
          <mxGeometry x="180" y="240" width="67.5" height="75" as="geometry" />
        </mxCell>
        <mxCell id="8H6woboxu_KClOvkfunE-14" style="edgeStyle=orthogonalEdgeStyle;rounded=0;orthogonalLoop=1;jettySize=auto;html=1;exitX=0.99;exitY=0.215;exitDx=0;exitDy=0;exitPerimeter=0;" edge="1" parent="WIyWlLk6GJQsqaUBKTNV-1" source="8H6woboxu_KClOvkfunE-2" target="8H6woboxu_KClOvkfunE-7">
          <mxGeometry relative="1" as="geometry" />
        </mxCell>
        <mxCell id="8H6woboxu_KClOvkfunE-2" value="" style="outlineConnect=0;dashed=0;verticalLabelPosition=bottom;verticalAlign=top;align=center;html=1;shape=mxgraph.aws3.emr_cluster;fillColor=#F58534;gradientColor=none;" vertex="1" parent="WIyWlLk6GJQsqaUBKTNV-1">
          <mxGeometry x="400" y="140" width="55.5" height="63" as="geometry" />
        </mxCell>
        <mxCell id="8H6woboxu_KClOvkfunE-3" value="" style="outlineConnect=0;dashed=0;verticalLabelPosition=bottom;verticalAlign=top;align=center;html=1;shape=mxgraph.aws3.emr;fillColor=#F58534;gradientColor=none;" vertex="1" parent="WIyWlLk6GJQsqaUBKTNV-1">
          <mxGeometry x="290" y="433" width="67.5" height="81" as="geometry" />
        </mxCell>
        <mxCell id="8H6woboxu_KClOvkfunE-12" style="edgeStyle=orthogonalEdgeStyle;rounded=0;orthogonalLoop=1;jettySize=auto;html=1;exitX=0.915;exitY=0.5;exitDx=0;exitDy=0;exitPerimeter=0;entryX=0.95;entryY=0.95;entryDx=0;entryDy=0;entryPerimeter=0;" edge="1" parent="WIyWlLk6GJQsqaUBKTNV-1" source="8H6woboxu_KClOvkfunE-4" target="8H6woboxu_KClOvkfunE-7">
          <mxGeometry relative="1" as="geometry" />
        </mxCell>
        <mxCell id="8H6woboxu_KClOvkfunE-4" value="" style="outlineConnect=0;dashed=0;verticalLabelPosition=bottom;verticalAlign=top;align=center;html=1;shape=mxgraph.aws3.dense_storage_node;fillColor=#2E73B8;gradientColor=none;" vertex="1" parent="WIyWlLk6GJQsqaUBKTNV-1">
          <mxGeometry x="240" y="520" width="55.5" height="63" as="geometry" />
        </mxCell>
        <mxCell id="8H6woboxu_KClOvkfunE-15" style="edgeStyle=orthogonalEdgeStyle;rounded=0;orthogonalLoop=1;jettySize=auto;html=1;exitX=1;exitY=0.89;exitDx=0;exitDy=0;exitPerimeter=0;" edge="1" parent="WIyWlLk6GJQsqaUBKTNV-1" source="8H6woboxu_KClOvkfunE-5" target="8H6woboxu_KClOvkfunE-7">
          <mxGeometry relative="1" as="geometry" />
        </mxCell>
        <mxCell id="8H6woboxu_KClOvkfunE-5" value="" style="outlineConnect=0;dashed=0;verticalLabelPosition=bottom;verticalAlign=top;align=center;html=1;shape=mxgraph.aws3.rds_db_instance_read_replica;fillColor=#2E73B8;gradientColor=none;" vertex="1" parent="WIyWlLk6GJQsqaUBKTNV-1">
          <mxGeometry x="290" y="203" width="49.5" height="66" as="geometry" />
        </mxCell>
        <mxCell id="8H6woboxu_KClOvkfunE-6" value="" style="outlineConnect=0;dashed=0;verticalLabelPosition=bottom;verticalAlign=top;align=center;html=1;shape=mxgraph.aws3.rds_db_instance;fillColor=#2E73B8;gradientColor=none;" vertex="1" parent="WIyWlLk6GJQsqaUBKTNV-1">
          <mxGeometry x="410" y="570" width="49.5" height="66" as="geometry" />
        </mxCell>
        <mxCell id="8H6woboxu_KClOvkfunE-11" style="edgeStyle=orthogonalEdgeStyle;rounded=0;orthogonalLoop=1;jettySize=auto;html=1;exitX=1;exitY=0.53;exitDx=0;exitDy=0;exitPerimeter=0;entryX=1;entryY=0.5;entryDx=0;entryDy=0;entryPerimeter=0;" edge="1" parent="WIyWlLk6GJQsqaUBKTNV-1" source="8H6woboxu_KClOvkfunE-7" target="8H6woboxu_KClOvkfunE-6">
          <mxGeometry relative="1" as="geometry" />
        </mxCell>
        <mxCell id="8H6woboxu_KClOvkfunE-7" value="" style="outlineConnect=0;dashed=0;verticalLabelPosition=bottom;verticalAlign=top;align=center;html=1;shape=mxgraph.aws3.redis;fillColor=#2E73B8;gradientColor=none;" vertex="1" parent="WIyWlLk6GJQsqaUBKTNV-1">
          <mxGeometry x="380" y="260" width="64" height="63" as="geometry" />
        </mxCell>
        <mxCell id="8H6woboxu_KClOvkfunE-9" style="edgeStyle=orthogonalEdgeStyle;rounded=0;orthogonalLoop=1;jettySize=auto;html=1;exitX=0.5;exitY=0;exitDx=0;exitDy=0;exitPerimeter=0;" edge="1" parent="WIyWlLk6GJQsqaUBKTNV-1" source="8H6woboxu_KClOvkfunE-8" target="8H6woboxu_KClOvkfunE-7">
          <mxGeometry relative="1" as="geometry" />
        </mxCell>
        <mxCell id="8H6woboxu_KClOvkfunE-10" style="edgeStyle=orthogonalEdgeStyle;rounded=0;orthogonalLoop=1;jettySize=auto;html=1;exitX=0.5;exitY=1;exitDx=0;exitDy=0;exitPerimeter=0;" edge="1" parent="WIyWlLk6GJQsqaUBKTNV-1" source="8H6woboxu_KClOvkfunE-8" target="8H6woboxu_KClOvkfunE-3">
          <mxGeometry relative="1" as="geometry" />
        </mxCell>
        <mxCell id="8H6woboxu_KClOvkfunE-13" style="edgeStyle=orthogonalEdgeStyle;rounded=0;orthogonalLoop=1;jettySize=auto;html=1;exitX=0;exitY=0.5;exitDx=0;exitDy=0;exitPerimeter=0;entryX=0.5;entryY=0;entryDx=0;entryDy=0;entryPerimeter=0;" edge="1" parent="WIyWlLk6GJQsqaUBKTNV-1" source="8H6woboxu_KClOvkfunE-8" target="8H6woboxu_KClOvkfunE-1">
          <mxGeometry relative="1" as="geometry" />
        </mxCell>
        <mxCell id="8H6woboxu_KClOvkfunE-8" value="" style="outlineConnect=0;dashed=0;verticalLabelPosition=bottom;verticalAlign=top;align=center;html=1;shape=mxgraph.aws3.mysql_db_instance_2;fillColor=#2E73B8;gradientColor=none;" vertex="1" parent="WIyWlLk6GJQsqaUBKTNV-1">
          <mxGeometry x="100" y="370" width="60" height="63" as="geometry" />
        </mxCell>
        <mxCell id="8H6woboxu_KClOvkfunE-16" value="" style="shape=singleArrow;direction=north;whiteSpace=wrap;html=1;" vertex="1" parent="WIyWlLk6GJQsqaUBKTNV-1">
          <mxGeometry x="260" y="351.5" width="30" height="100" as="geometry" />
        </mxCell>
      </root>
    </mxGraphModel>
  </diagram>
</mxfile>
